PathFileType	4	(X/Y/Z)	C:/Users/opensim2020/Desktop/walking_exp_matlab/subject01_walking11_straight_04.trc																																																																																																																																		
DataRate	CameraRate	NumFrames	NumMarkers	Units	OrigDataRate	OrigDataStartFrame	OrigNumFrames																																																																																																																														
100	100	5	44	mm	100	4009	278																																																																																																																														
Frame#	Time	LFHD			RFHD			LBHD			RBHD			C7			T10			CLAV			STRN			RBAK			LSHO			LUPA			LELB			LFRM			LWRA			LWRB			LFIN			RSHO			RUPA			RELB			RFRM			RWRA			RWRB			RFIN			LASI			RASI			LPSI			RPSI			LTHI			LKNE			LTIB			LANK			LHEE			LTOE			RTHI			RKNE			RTIB			RANK			RHEE			RTOE			*39			*40			*41			*42			*43		
		X1	Y1	Z1	X2	Y2	Z2	X3	Y3	Z3	X4	Y4	Z4	X5	Y5	Z5	X6	Y6	Z6	X7	Y7	Z7	X8	Y8	Z8	X9	Y9	Z9	X10	Y10	Z10	X11	Y11	Z11	X12	Y12	Z12	X13	Y13	Z13	X14	Y14	Z14	X15	Y15	Z15	X16	Y16	Z16	X17	Y17	Z17	X18	Y18	Z18	X19	Y19	Z19	X20	Y20	Z20	X21	Y21	Z21	X22	Y22	Z22	X23	Y23	Z23	X24	Y24	Z24	X25	Y25	Z25	X26	Y26	Z26	X27	Y27	Z27	X28	Y28	Z28	X29	Y29	Z29	X30	Y30	Z30	X31	Y31	Z31	X32	Y32	Z32	X33	Y33	Z33	X34	Y34	Z34	X35	Y35	Z35	X36	Y36	Z36	X37	Y37	Z37	X38	Y38	Z38	X39	Y39	Z39	X40	Y40	Z40	X41	Y41	Z41	X42	Y42	Z42	X43	Y43	Z43	X44	Y44	Z44
																																																																																																																																					
140	1.39	-34.11556	1672.9187	1027.07849	1.49614	1673.67151	1136.0437	-149.28835	1636.32654	1058.62109	-115.19831	1636.64648	1173.71741	-188.6362	1434.81348	1079.41821	-220.94215	1140.67346	1083.63708	-45.68935	1366.50195	1083.41748	-1.40302	1212.39795	1075.76746	-246.98499	1236.96204	1148.46204	-99.76961	1404.40894	921.05157	-124.2039	1219.64893	835.99548	-133.71132	1067.20679	839.33978	-88.89405	963.26514	811.11792	1.36726	856.34955	822.8078	-54.29607	846.17621	802.56091	0.2449	782.17493	788.06464	-119.93649	1391.51355	1230.73132	-182.2299	1191.23767	1326.79358	-177.82304	1066.70056	1331.91113	-147.38995	951.31744	1366.02441	-61.12502	837.66321	1354.81494	-107.34109	837.66821	1390.87878	-67.97577	759.8797	1391.48889	-51.17229	931.04773	977.91003	-46.9589	937.09692	1194.82666	-235.36357	945.64618	1032.02246	-231.92795	951.5177	1177.80493	-40.50394	602.68591	914.76599	-39.97002	469.71152	923.0213	-186.8835	359.08276	919.55182	-350.67828	217.1602	972.68665	-396.97604	223.01508	1032.27893	-284.86438	86.56223	955.2464	-70.63103	603.85358	1243.36707	-43.45615	448.10132	1211.78345	-92.33521	277.69952	1214.08496	-119.31476	75.11842	1166.55823	-170.79286	37.73524	1118.36255	20.36685	37.33112	1162.18665	-12.02409	1708.797	1116.81519	-1973.01709	1023.45367	3101.76416	-2012.43579	1021.95105	3140.69971	NaN	NaN	NaN	NaN	NaN	NaN
141	1.4	-27.00437	1672.89795	1027.30945	8.97649	1673.59888	1136.19641	-142.28728	1636.729	1059.06641	-107.78001	1636.96497	1174.16089	-182.07016	1435.19128	1080.09509	-214.82581	1141.04944	1084.27307	-39.24676	1366.67761	1083.95056	4.8301	1212.44971	1076.479	-240.61052	1237.41821	1149.2937	-93.48775	1404.51599	921.5907	-118.56236	1219.67139	836.76074	-128.82574	1067.40833	840.57013	-85.49367	962.96295	812.4054	3.18596	854.59424	824.18079	-52.59758	845.27747	804.0647	0.8214	780.3512	789.66705	-113.3769	1391.91504	1231.34924	-174.53484	1191.51929	1327.80469	-169.64832	1066.97424	1333.04736	-138.37134	951.9397	1367.25085	-50.80923	839.05261	1355.96558	-96.97585	838.58649	1392.08191	-56.80851	761.29565	1392.77795	-45.04554	931.7254	979.07544	-41.30388	937.19702	1195.93286	-229.25861	946.21362	1032.30151	-226.23232	951.62341	1178.15491	-30.4523	604.19202	915.14575	-27.65516	471.39774	923.64661	-173.151	359.41861	920.33923	-335.15039	215.19415	973.07562	-381.6304	219.02101	1032.83777	-265.04428	86.64167	955.58783	-66.98936	603.53107	1243.63635	-41.22478	447.53064	1212.06567	-91.33277	277.54877	1214.20923	-119.12385	75.06149	1166.4646	-170.67448	37.83879	1118.2854	20.40392	37.29577	1162.13416	-4.94508	1708.57397	1116.44275	-1973.07715	1023.44696	3101.99658	-2012.50732	1021.96985	3140.67188	NaN	NaN	NaN	NaN	NaN	NaN
142	1.41	-19.89637	1672.84265	1027.48657	16.36908	1673.49451	1136.20105	-135.48497	1637.09143	1059.63062	-100.3675	1637.3136	1174.59387	-175.56668	1435.53333	1080.63965	-208.71487	1141.41772	1084.94348	-32.85212	1366.81543	1084.40735	11.02578	1212.52246	1077.10315	-234.24806	1237.85022	1150.03381	-87.07172	1404.64319	922.08105	-112.95041	1219.71472	837.47839	-124.1639	1067.65405	841.73523	-82.16729	962.64404	813.53192	4.90008	852.91101	825.50751	-50.91251	844.4292	805.04999	1.66214	778.69684	791.11432	-106.81808	1392.27844	1231.76904	-167.04097	1191.79358	1328.74854	-161.57761	1067.24084	1334.15637	-129.17967	952.44049	1368.38501	-40.54344	840.43976	1357.0144	-86.61513	839.61908	1393.27502	-45.62786	762.64044	1393.84399	-39.20619	932.31274	980.20258	-35.60775	937.24445	1197.04492	-223.29478	946.66089	1032.62463	-220.55583	951.76666	1178.48059	-20.45568	605.78796	915.4397	-15.55949	473.14987	924.28259	-159.3833	359.37302	921.05969	-318.61719	211.67694	973.73077	-365.81723	214.15636	1033.05469	-244.51804	86.00555	955.69037	-63.64346	603.34998	1243.86023	-39.1887	447.16586	1212.4458	-90.44447	277.42877	1214.27612	-118.98872	75.07267	1166.33264	-170.50403	37.83329	1118.17883	20.45707	37.32515	1162.08545	2.93297	1708.70264	1116.89624	-1973.08582	1023.45514	3101.99683	-2012.55994	1022.07977	3140.53784	NaN	NaN	NaN	NaN	NaN	NaN
143	1.42	-12.8642	1672.78296	1027.56445	23.76182	1673.44287	1136.27405	-128.50502	1637.47375	1060.07788	-93.01566	1637.65503	1174.91907	-169.0694	1435.86938	1081.14526	-202.5858	1141.77856	1085.53943	-26.39303	1366.94934	1084.82019	17.12578	1212.59326	1077.73254	-227.96112	1238.23767	1150.6781	-80.7514	1404.74158	922.4942	-107.31964	1219.76819	838.10822	-119.29491	1067.83813	842.67395	-78.81828	962.37091	814.55505	6.65491	851.33661	826.75897	-49.26283	843.71515	806.2196	2.26933	776.85754	792.64056	-100.34264	1392.62622	1232.25854	-159.65414	1192.16516	1329.90491	-153.56209	1067.51038	1335.19128	-120.02149	953.03137	1369.45654	-30.26693	841.88049	1358.04797	-76.27486	840.60217	1394.28955	-34.53085	764.07233	1394.99487	-33.42646	932.98413	981.23328	-29.92109	937.1731	1197.89246	-217.39316	946.94672	1032.99316	-214.82536	951.94482	1178.83179	-10.57214	607.4472	915.74335	-3.88222	474.95273	924.95514	-145.65733	358.90231	921.83167	-301.495	207.49422	974.12421	-349.56323	208.43822	1033.22058	-223.62234	84.76677	955.90558	-60.378	603.07214	1244.11316	-37.20957	446.53336	1212.76672	-89.46734	277.28403	1214.30701	-118.90681	75.11485	1166.23572	-170.46771	37.87819	1118.54016	20.47146	37.22426	1162.08325	10.09425	1708.44397	1116.54895	-1973.12146	1023.53967	3101.90234	-2012.58887	1022.03864	3140.68506	NaN	NaN	NaN	NaN	NaN	NaN
144	1.43	-5.7271	1672.80286	1027.66882	31.11576	1673.35559	1136.2251	-121.46309	1637.90796	1060.37012	-85.67454	1638.00842	1175.17822	-162.48721	1436.19971	1081.6355	-196.51276	1142.15479	1086.22095	-19.97938	1367.08997	1085.23438	23.31081	1212.66162	1078.22803	-221.57854	1238.6709	1151.29272	-74.42914	1404.79248	922.86707	-101.71931	1219.76917	838.71301	-114.6969	1068.07129	843.59326	-75.43195	962.12512	815.58337	8.42926	849.83002	827.95941	-47.58663	843.02307	807.30579	2.93591	775.25568	793.97858	-93.87543	1393.14124	1232.88159	-152.41501	1192.39661	1330.68762	-145.65373	1067.72864	1336.16223	-110.94052	953.6145	1370.47229	-19.97491	843.39709	1358.97119	-66.02135	841.63727	1395.2572	-23.37599	765.55872	1395.96521	-27.62901	933.53735	982.13568	-24.24509	937.08423	1198.70654	-211.51067	947.37805	1033.36401	-209.19162	952.2027	1179.245	-0.89385	609.08197	916.02814	7.65855	476.77466	925.66119	-131.76239	357.82434	922.29865	-284.05392	202.3932	974.10333	-332.58737	201.6916	1033.39844	-201.29276	83.76762	956.16742	-57.3536	602.94312	1244.27917	-35.28466	446.25043	1213.11292	-88.35935	277.15775	1214.39294	-118.79855	75.09939	1166.18896	-170.44312	37.96597	1118.44727	20.48781	37.18729	1162.099	17.79027	1708.60645	1116.90405	-1973.12109	1023.54272	3101.92749	-2012.51477	1022.05151	3140.66895	NaN	NaN	NaN	NaN	NaN	NaN
